<mxfile host="app.diagrams.net" modified="2020-08-27T08:23:51.796Z" agent="5.0 (Windows NT 10.0; Win64; x64) AppleWebKit/537.36 (KHTML, like Gecko) Chrome/84.0.4147.125 Safari/537.36" etag="RgeWVrZMO7Bi0xZyYafQ" version="13.6.4" type="github">
  <diagram id="qMbztW9w8UMV-IpqzAYy" name="第 1 页">
    <mxGraphModel dx="1461" dy="1534" grid="1" gridSize="10" guides="1" tooltips="1" connect="1" arrows="1" fold="1" page="1" pageScale="1" pageWidth="827" pageHeight="1169" math="0" shadow="0">
      <root>
        <mxCell id="0" />
        <mxCell id="1" parent="0" />
        <mxCell id="naJ9hmkFdvaWdZ-Nx63z-1" value="&lt;br&gt;&lt;pre style=&quot;color: rgb(195 , 206 , 227) ; font-family: &amp;#34;cccccccc&amp;#34; ; font-size: 11.3pt&quot;&gt;&lt;span style=&quot;color: #c792ea&quot;&gt;@Configuration&lt;br&gt;&lt;/span&gt;&lt;span style=&quot;color: #c792ea ; font-style: italic&quot;&gt;public class &lt;/span&gt;&lt;span style=&quot;color: #ffcb6b&quot;&gt;HotSwappableTargetSourceConfig &lt;/span&gt;&lt;span style=&quot;color: #f78c6c&quot;&gt;{&lt;br&gt;&lt;/span&gt;&lt;span style=&quot;color: #f78c6c&quot;&gt;&lt;br&gt;&lt;/span&gt;&lt;span style=&quot;color: #f78c6c&quot;&gt;    &lt;/span&gt;&lt;span style=&quot;color: #546e7a ; font-style: italic&quot;&gt;// @Autowired&lt;br&gt;&lt;/span&gt;&lt;span style=&quot;color: #546e7a ; font-style: italic&quot;&gt;    // private HotSwappableTargetSourceBean hotSwappableTargetSourceBean;&lt;br&gt;&lt;/span&gt;&lt;span style=&quot;color: #546e7a ; font-style: italic&quot;&gt;    //&lt;br&gt;&lt;/span&gt;&lt;span style=&quot;color: #546e7a ; font-style: italic&quot;&gt;    // @Bean&lt;br&gt;&lt;/span&gt;&lt;span style=&quot;color: #546e7a ; font-style: italic&quot;&gt;    // public HotSwappableTargetSource hotSwappableTargetSource() {&lt;br&gt;&lt;/span&gt;&lt;span style=&quot;color: #546e7a ; font-style: italic&quot;&gt;    //     return new HotSwappableTargetSource(hotSwappableTargetSourceBean);&lt;br&gt;&lt;/span&gt;&lt;span style=&quot;color: #546e7a ; font-style: italic&quot;&gt;    // }&lt;br&gt;&lt;/span&gt;&lt;span style=&quot;color: #546e7a ; font-style: italic&quot;&gt;&lt;br&gt;&lt;/span&gt;&lt;span style=&quot;color: #546e7a ; font-style: italic&quot;&gt;    &lt;/span&gt;&lt;span style=&quot;color: #c792ea&quot;&gt;@Bean&lt;br&gt;&lt;/span&gt;&lt;span style=&quot;color: #c792ea&quot;&gt;    &lt;/span&gt;&lt;span style=&quot;color: #c792ea ; font-style: italic&quot;&gt;public &lt;/span&gt;&lt;span style=&quot;color: #ffcb6b&quot;&gt;HotSwappableTargetSource &lt;/span&gt;&lt;span style=&quot;color: #82aaff&quot;&gt;hotSwappableTargetSource&lt;/span&gt;&lt;span style=&quot;color: #f78c6c&quot;&gt;(&lt;/span&gt;&lt;span style=&quot;color: #ffcb6b&quot;&gt;HotSwappableTargetSourceBeanA &lt;/span&gt;&lt;span style=&quot;color: #f78c6c&quot;&gt;hotSwappableTargetSourceBeanA) {&lt;br&gt;&lt;/span&gt;&lt;span style=&quot;color: #f78c6c&quot;&gt;        &lt;/span&gt;&lt;span style=&quot;color: #c792ea ; font-style: italic&quot;&gt;return new &lt;/span&gt;&lt;span style=&quot;color: #82aaff&quot;&gt;HotSwappableTargetSource&lt;/span&gt;&lt;span style=&quot;color: #f78c6c&quot;&gt;(hotSwappableTargetSourceBeanA)&lt;/span&gt;&lt;span style=&quot;color: #89ddff&quot;&gt;;&lt;br&gt;&lt;/span&gt;&lt;span style=&quot;color: #89ddff&quot;&gt;    &lt;/span&gt;&lt;span style=&quot;color: #f78c6c&quot;&gt;}&lt;br&gt;&lt;/span&gt;&lt;span style=&quot;color: #f78c6c&quot;&gt;&lt;br&gt;&lt;/span&gt;&lt;span style=&quot;color: #f78c6c&quot;&gt;    &lt;/span&gt;&lt;span style=&quot;color: #c792ea&quot;&gt;@Bean&lt;br&gt;&lt;/span&gt;&lt;span style=&quot;color: #c792ea&quot;&gt;    &lt;/span&gt;&lt;span style=&quot;color: #c792ea ; font-style: italic&quot;&gt;public &lt;/span&gt;&lt;span style=&quot;color: #ffcb6b&quot;&gt;ProxyFactoryBean &lt;/span&gt;&lt;span style=&quot;color: #82aaff&quot;&gt;proxyFactoryBean&lt;/span&gt;&lt;span style=&quot;color: #f78c6c&quot;&gt;(&lt;/span&gt;&lt;span style=&quot;color: #ffcb6b&quot;&gt;HotSwappableTargetSource &lt;/span&gt;&lt;span style=&quot;color: #f78c6c&quot;&gt;hotSwappableTargetSource) {&lt;br&gt;&lt;/span&gt;&lt;span style=&quot;color: #f78c6c&quot;&gt;        &lt;/span&gt;&lt;span style=&quot;color: #ffcb6b&quot;&gt;ProxyFactoryBean &lt;/span&gt;&lt;span style=&quot;color: #eeffe3&quot;&gt;proxyFactoryBean &lt;/span&gt;&lt;span style=&quot;color: #89ddff&quot;&gt;= &lt;/span&gt;&lt;span style=&quot;color: #c792ea ; font-style: italic&quot;&gt;new &lt;/span&gt;&lt;span style=&quot;color: #82aaff&quot;&gt;ProxyFactoryBean&lt;/span&gt;&lt;span style=&quot;color: #f78c6c&quot;&gt;()&lt;/span&gt;&lt;span style=&quot;color: #89ddff&quot;&gt;;&lt;br&gt;&lt;/span&gt;&lt;span style=&quot;color: #89ddff&quot;&gt;        &lt;/span&gt;&lt;span style=&quot;color: #eeffe3&quot;&gt;proxyFactoryBean&lt;/span&gt;&lt;span style=&quot;color: #89ddff&quot;&gt;.&lt;/span&gt;&lt;span style=&quot;color: #82aaff&quot;&gt;setTargetSource&lt;/span&gt;&lt;span style=&quot;color: #f78c6c&quot;&gt;(hotSwappableTargetSource)&lt;/span&gt;&lt;span style=&quot;color: #89ddff&quot;&gt;;&lt;br&gt;&lt;/span&gt;&lt;span style=&quot;color: #89ddff&quot;&gt;        &lt;/span&gt;&lt;span style=&quot;color: #c792ea ; font-style: italic&quot;&gt;return &lt;/span&gt;&lt;span style=&quot;color: #eeffe3&quot;&gt;proxyFactoryBean&lt;/span&gt;&lt;span style=&quot;color: #89ddff&quot;&gt;;&lt;br&gt;&lt;/span&gt;&lt;span style=&quot;color: #89ddff&quot;&gt;    &lt;/span&gt;&lt;span style=&quot;color: #f78c6c&quot;&gt;}&lt;br&gt;&lt;/span&gt;&lt;span style=&quot;color: #f78c6c&quot;&gt;&lt;br&gt;&lt;/span&gt;&lt;span style=&quot;color: #f78c6c&quot;&gt;&lt;br&gt;&lt;/span&gt;&lt;span style=&quot;color: #f78c6c&quot;&gt;}&lt;/span&gt;&lt;/pre&gt;&lt;pre style=&quot;color: rgb(195 , 206 , 227) ; font-family: &amp;#34;cccccccc&amp;#34; ; font-size: 11.3pt&quot;&gt;&lt;span style=&quot;color: #f78c6c&quot;&gt;&lt;br&gt;&lt;/span&gt;&lt;/pre&gt;&lt;pre style=&quot;color: rgb(195 , 206 , 227) ; font-family: &amp;#34;cccccccc&amp;#34; ; font-size: 11.3pt&quot;&gt;&lt;span style=&quot;color: #f78c6c&quot;&gt;&lt;br&gt;&lt;/span&gt;&lt;/pre&gt;&lt;pre style=&quot;color: rgb(195 , 206 , 227) ; font-family: &amp;#34;cccccccc&amp;#34; ; font-size: 11.3pt&quot;&gt;&lt;span style=&quot;color: #f78c6c&quot;&gt;&lt;br&gt;&lt;/span&gt;&lt;/pre&gt;&lt;pre style=&quot;color: rgb(195 , 206 , 227) ; font-family: &amp;#34;cccccccc&amp;#34; ; font-size: 11.3pt&quot;&gt;&lt;span style=&quot;color: #f78c6c&quot;&gt;&lt;br&gt;&lt;/span&gt;&lt;/pre&gt;&lt;pre style=&quot;color: rgb(195 , 206 , 227) ; font-family: &amp;#34;cccccccc&amp;#34; ; font-size: 11.3pt&quot;&gt;&lt;span style=&quot;color: #f78c6c&quot;&gt;&lt;br&gt;&lt;/span&gt;&lt;/pre&gt;&lt;pre style=&quot;color: rgb(195 , 206 , 227) ; font-family: &amp;#34;cccccccc&amp;#34; ; font-size: 11.3pt&quot;&gt;&lt;span style=&quot;color: #f78c6c&quot;&gt;&lt;br&gt;&lt;/span&gt;&lt;/pre&gt;&lt;pre style=&quot;font-family: &amp;#34;cccccccc&amp;#34; ; font-size: 11.3pt&quot;&gt;&lt;div style=&quot;font-family: &amp;#34;helvetica&amp;#34; ; font-size: 15px&quot;&gt;&lt;font color=&quot;#ffffff&quot;&gt;beanName： hotSwappableTargetSource&lt;/font&gt;&lt;/div&gt;&lt;div style=&quot;font-family: &amp;#34;helvetica&amp;#34; ; font-size: 15px&quot;&gt;&lt;font color=&quot;#ffffff&quot;&gt;注入：hotSwappableTargetSourceBeanA&lt;/font&gt;&lt;/div&gt;&lt;div style=&quot;font-family: &amp;#34;helvetica&amp;#34; ; font-size: 15px&quot;&gt;&lt;font color=&quot;#ffffff&quot;&gt;&lt;br&gt;&lt;/font&gt;&lt;/div&gt;&lt;div style=&quot;font-family: &amp;#34;helvetica&amp;#34; ; font-size: 15px&quot;&gt;&lt;font color=&quot;#ffffff&quot;&gt;beanName： proxyFactoryBean&lt;/font&gt;&lt;/div&gt;&lt;div style=&quot;font-family: &amp;#34;helvetica&amp;#34; ; font-size: 15px&quot;&gt;&lt;font color=&quot;#ffffff&quot;&gt;注入：hotSwappableTargetSource&lt;/font&gt;&lt;/div&gt;&lt;div style=&quot;font-family: &amp;#34;helvetica&amp;#34; ; font-size: 15px&quot;&gt;&lt;font color=&quot;#ffffff&quot;&gt;&lt;br&gt;&lt;/font&gt;&lt;/div&gt;&lt;div style=&quot;font-family: &amp;#34;helvetica&amp;#34; ; font-size: 15px&quot;&gt;&lt;font color=&quot;#ffffff&quot;&gt;beanName： proxyFactoryBean&lt;/font&gt;&lt;/div&gt;&lt;div style=&quot;font-family: &amp;#34;helvetica&amp;#34; ; font-size: 15px&quot;&gt;&lt;font color=&quot;#ffffff&quot;&gt;注入： hotSwappableTargetSource&lt;/font&gt;&lt;/div&gt;&lt;span style=&quot;color: rgb(247 , 140 , 108)&quot;&gt;&lt;br&gt;&lt;/span&gt;&lt;/pre&gt;" style="text;html=1;strokeColor=none;fillColor=none;align=left;verticalAlign=middle;whiteSpace=wrap;rounded=0;labelBackgroundColor=#0A0A0A;labelBorderColor=none;" vertex="1" parent="1">
          <mxGeometry x="-280" y="-880" width="1020" height="510" as="geometry" />
        </mxCell>
        <mxCell id="naJ9hmkFdvaWdZ-Nx63z-3" value="&lt;div style=&quot;background-color: rgb(248 , 249 , 250)&quot;&gt;&lt;br&gt;&lt;/div&gt;" style="text;html=1;strokeColor=none;fillColor=none;align=left;verticalAlign=middle;whiteSpace=wrap;rounded=0;labelBackgroundColor=#0A0A0A;" vertex="1" parent="1">
          <mxGeometry x="390" y="-510" width="260" height="150" as="geometry" />
        </mxCell>
        <mxCell id="naJ9hmkFdvaWdZ-Nx63z-4" value="createArgumentArray" style="rounded=0;whiteSpace=wrap;html=1;labelBackgroundColor=none;align=center;" vertex="1" parent="1">
          <mxGeometry x="-270" y="-160" width="280" height="30" as="geometry" />
        </mxCell>
      </root>
    </mxGraphModel>
  </diagram>
</mxfile>
